<svg xmlns="http://www.w3.org/2000/svg" viewBox="0 0 200 200" width="200" height="200">
  <defs>
    <linearGradient id="dataGradient" x1="0%" y1="0%" x2="100%" y2="100%">
      <stop offset="0%" stop-color="#4164ff" />
      <stop offset="100%" stop-color="#5a3eff" />
    </linearGradient>
    <linearGradient id="flowGradient" x1="0%" y1="0%" x2="100%" y2="0%">
      <stop offset="0%" stop-color="#ff4d8f" />
      <stop offset="100%" stop-color="#ff8c63" />
    </linearGradient>
    <filter id="dataGlow">
      <feGaussianBlur stdDeviation="3" result="blur" />
      <feComposite in="SourceGraphic" in2="blur" operator="over" />
    </filter>
  </defs>
  
  <!-- Основной фон -->
  <rect x="10" y="10" width="180" height="180" rx="20" fill="url(#dataGradient)" filter="url(#dataGlow)" />
  
  <!-- Сеть потока данных -->
  <g stroke-width="6" stroke-linecap="round" filter="url(#dataGlow)">
    <path d="M40,70 C60,70 60,100 80,100 S100,130 120,130 S140,100 160,100" 
          stroke="url(#flowGradient)" fill="none" />
    <path d="M40,100 C60,100 60,130 80,130 S100,100 120,100 S140,70 160,70" 
          stroke="white" opacity="0.8" fill="none" />
  </g>
  
  <!-- Узлы данных -->
  <circle cx="40" cy="70" r="10" fill="#ff4d8f" />
  <circle cx="80" cy="100" r="12" fill="#ff6b7a" />
  <circle cx="120" cy="130" r="10" fill="#ff8c63" />
  <circle cx="160" cy="100" r="8" fill="#ffaa50" />
  
  <circle cx="40" cy="100" r="8" fill="white" />
  <circle cx="80" cy="130" r="10" fill="white" opacity="0.9" />
  <circle cx="120" cy="100" r="12" fill="white" opacity="0.8" />
  <circle cx="160" cy="70" r="10" fill="white" opacity="0.7" />
  
  <!-- Цифровой эффект -->
  <g fill="white" opacity="0.5" font-family="monospace" font-size="8">
    <text x="50" y="60">01001</text>
    <text x="90" y="90">10101</text>
    <text x="130" y="120">11010</text>
    <text x="150" y="150">01011</text>
  </g>
</svg> 